<svg xmlns="http://www.w3.org/2000/svg"  viewBox="0 0 72 72" width="64px" height="64px"><path d="M 36 12 C 22.745 12 12 22.745 12 36 C 12 40.435 13.207688 44.585391 15.304688 48.150391 L 12.234375 59.65625 L 24.302734 56.955078 C 27.764734 58.891078 31.752 60 36 60 C 49.255 60 60 49.255 60 36 C 60 22.745 49.255 12 36 12 z M 36 20 C 44.837 20 52 27.163 52 36 C 52 44.837 44.837 52 36 52 C 32.147 52 28.613563 50.637141 25.851562 48.369141 L 23.328125 48.933594 L 23.970703 46.527344 C 21.505703 43.713344 20 40.036 20 36 C 20 27.163 27.163 20 36 20 z M 28.833984 26.857422 C 28.492984 26.857422 27.946469 26.980422 27.480469 27.482422 C 27.022469 27.984422 25.714844 29.192203 25.714844 31.658203 C 25.714844 34.116203 27.521391 36.498172 27.775391 36.826172 C 28.029391 37.162172 31.277734 42.379766 36.427734 44.384766 C 40.697734 46.046766 41.568906 45.716859 42.503906 45.630859 C 43.430906 45.550859 45.498922 44.422859 45.919922 43.255859 C 46.340922 42.086859 46.340938 41.085 46.210938 40.875 C 46.081937 40.672 45.750188 40.547875 45.242188 40.296875 C 44.734187 40.046875 42.245297 38.832969 41.779297 38.667969 C 41.318297 38.502969 40.978484 38.415969 40.646484 38.917969 C 40.305484 39.418969 39.338109 40.548953 39.037109 40.876953 C 38.745109 41.213953 38.453313 41.252953 37.945312 41.001953 C 37.437312 40.750953 35.804094 40.224578 33.871094 38.517578 C 32.368094 37.194578 31.354547 35.557641 31.060547 35.056641 C 30.766547 34.555641 31.02725 34.28225 31.28125 34.03125 C 31.51125 33.81225 31.788969 33.452109 32.042969 33.162109 C 32.287969 32.864109 32.375969 32.659266 32.542969 32.322266 C 32.717969 31.994266 32.629906 31.696313 32.503906 31.445312 C 32.377906 31.194312 31.394359 28.721375 30.943359 27.734375 C 30.563359 26.904375 30.166734 26.879094 29.802734 26.871094 C 29.507734 26.856094 29.165984 26.857422 28.833984 26.857422 z"/></svg>